<?xml version="1.0" encoding="UTF-8" standalone="no"?>
<svg width="400px" height="88px" viewBox="0 0 400 88" version="1.1" xmlns="http://www.w3.org/2000/svg" xmlns:xlink="http://www.w3.org/1999/xlink" xmlns:sketch="http://www.bohemiancoding.com/sketch/ns">
    <g id="Page-1" stroke="none" stroke-width="1" fill="none" fill-rule="evenodd" sketch:type="MSPage">
        <g id="Group" sketch:type="MSLayerGroup">
            <path d="M307.123668,2.35966146 L309.062701,2.81388021 L390.855514,22.0004167 L295.645105,43.1295052 L297.92912,35.0154167 L278.262701,35.0154167 L268.199257,73.990651 C267.086493,78.3027604 263.06518,81.4323177 258.637918,81.4323177 L237.516233,81.4323177 L249.500867,35.0154167 L192.51995,35.0154167 C188.805948,35.0154167 185.546468,36.0836719 182.554647,38.2810417 C179.643618,40.4195313 177.819083,43.0448958 176.976952,46.3070573 C176.285502,48.9858594 176.534325,50.8141146 177.783395,52.2361458 C179.178686,53.8214583 181.444362,54.5923438 184.709294,54.5923438 L229.825031,54.5923438 L222.895663,81.4323177 L180.53482,81.4323177 C168.981413,81.4323177 160.086741,77.7159375 154.096654,70.3870833 C153.021561,69.0719271 152.071375,67.6686979 151.263445,66.205599 C148.933333,69.6191667 145.840397,72.5997917 142.057497,75.076224 C135.733829,79.2928385 128.466419,81.4323177 120.460967,81.4323177 L65.5405204,81.4323177 C63.1068154,82.5540104 57.022057,85.0561719 50.4887237,85.4218229 C50.1883519,85.4386458 49.8864932,85.4470573 49.5930607,85.4470573 C42.1511772,85.4470573 38.6349442,80.263125 36.5343247,77.166224 C36.1833953,76.6491667 35.8597274,76.1716927 35.5568773,75.7679427 C34.4570012,74.2974219 34.045601,73.7477083 32.7598513,73.0035417 C32.3484511,72.7655469 32.0872367,72.6952865 32.0277571,72.689349 L31.7531599,72.6675781 C30.4877323,72.6675781 27.0111524,74.8377344 24.5581165,76.8648958 L20.8525403,79.928151 L21.157373,75.1351042 C21.1638166,75.0341667 21.3016109,72.9941406 21.9261462,70.6394271 C16.2086741,73.2826042 10.216109,76.3047917 10.1541512,76.3359635 L4.4976456,79.1953646 L8.86245353,70.5815365 C9.2802974,69.756224 19.2629492,50.3722656 33.9915737,50.3722656 C36.802974,50.3722656 39.5930607,51.0827865 42.2845105,52.485026 C42.5358116,52.5825 42.7836431,52.6829427 43.0299876,52.7828906 C43.6327138,53.0273177 44.4574969,53.3617969 44.7474597,53.3617969 C44.7895911,53.3617969 44.9596035,53.3434896 45.376456,53.1089583 C45.6946716,52.9298438 46.0302354,52.7353906 46.3831475,52.5305469 L46.5229244,52.4498958 C49.8136307,50.5395052 54.6562577,47.728099 60.5035936,47.2971354 C59.250062,46.3560417 58.2493185,45.1423177 57.514746,43.6693229 C54.9625774,44.4684115 52.5947955,44.8573177 50.2929368,44.8573177 C49.8874845,44.8573177 49.4850062,44.8459375 49.0959108,44.8226823 C43.6674102,44.5055208 39.0919455,42.1478385 36.8242875,40.2250781 C33.6758364,37.5576563 32.4589839,35.2311458 30.7628253,30.6948958 L30.7395291,30.6320573 C28.536803,30.0541406 26.4634449,29.1847917 24.8723668,28.1684896 L8.07831475,17.4409115 L27.9960347,18.3414323 C28.3623296,18.3582552 29.0349442,18.3904167 29.3977695,18.4077344 L29.6416357,18.4191146 C31.0513011,18.4873958 32.0669145,18.536875 32.9030979,18.536875 C34.4292441,18.536875 35.4874845,18.356276 38.048575,17.6596094 C38.9605948,17.411224 40.3301115,16.7496875 41.7799257,16.0495573 C45.5083024,14.2480208 50.1482032,12.0051302 55.8597274,12.0051302 C57.95886,12.0051302 60.0490706,12.3227865 62.0723668,12.9482031 C67.8508055,14.7363802 71.0517968,17.5601563 74.1477076,20.2909115 C74.3727385,20.4898177 74.5997522,20.6902083 74.8297398,20.8915885 C76.4317224,17.3958854 80.8099133,10.9675521 91.3154895,10.9675521 C91.7635688,10.9675521 92.2260223,10.9794271 92.6924411,11.0026823 C97.2971499,9.06755208 102.314746,8.086875 107.608922,8.086875 L163.197026,8.086875 L158.968525,24.4620052 C161.212887,21.9588542 163.781908,19.6620313 166.632962,17.6126042 C175.426022,11.2916406 185.547955,8.086875 196.717224,8.086875 L305.511276,8.086875 L307.123668,2.35966146 L307.123668,2.35966146 Z M76.6498141,54.5923438 L87.2907063,54.5923438 C84.2522924,53.5369531 81.6128872,51.974401 79.4096654,49.9210156 C78.4788104,49.0566146 77.6451053,48.1130469 76.927881,47.1115885 C76.4788104,47.2704167 75.9291202,47.509401 75.3551425,47.7597656 C73.7878563,48.4420833 71.9083024,49.2609635 69.6495663,49.5311198 C72.626518,51.18125 75.198513,53.3499219 76.6498141,54.5923438 L76.6498141,54.5923438 Z M305.728872,0 L304.008922,6.10770833 L196.717224,6.10770833 C185.123668,6.10770833 174.611648,9.43815104 165.474102,16.0065104 C164.496159,16.7096094 163.547955,17.4428906 162.63197,18.2028906 L165.755638,6.10770833 L107.608922,6.10770833 C102.208178,6.10770833 97.0736059,7.08294271 92.3390335,9.00669271 C91.9925651,8.99481771 91.6495663,8.98838542 91.3154895,8.98838542 C81.6574969,8.98838542 76.6478315,14.0723698 74.2815366,17.7748958 C71.4453532,15.3202344 68.0768278,12.7339583 62.6597274,11.058099 C60.4451053,10.3733073 58.1576208,10.0259635 55.8597274,10.0259635 C49.694176,10.0259635 44.8272615,12.3782031 40.9164808,14.2678125 C39.6079306,14.9001563 38.2607187,15.5503125 37.5266419,15.7502083 C34.9883519,16.4409375 34.1457249,16.5577083 32.9030979,16.5577083 C32.1135068,16.5577083 31.1167286,16.5092188 29.7377943,16.4424219 L29.4914498,16.4305469 C29.1291202,16.4132292 28.4545229,16.3810677 28.0872367,16.3642448 L8.16802974,15.463724 L0.782156134,15.1297396 L23.8037175,29.8354427 C25.3120198,30.7988021 27.2128872,31.6458854 29.238166,32.2633854 C30.8748451,36.4997917 32.2929368,38.9821615 35.5410161,41.7341927 C38.0421314,43.854375 43.0627014,46.4530208 48.9804213,46.7983854 C49.4066914,46.8236198 49.8493185,46.8364844 50.2929368,46.8364844 C51.7511772,46.8364844 53.2252788,46.6954688 54.7439901,46.4084896 C50.9804213,47.5727344 47.8478315,49.3910938 45.5261462,50.7389063 L45.3908302,50.8170833 C45.1142503,50.9773958 44.8510533,51.1297917 44.5992565,51.273776 C44.3206939,51.1698698 43.9826518,51.0328125 43.7804213,50.9511719 C43.5548947,50.8596354 43.3303594,50.7685938 43.1038414,50.6795313 C40.1566295,49.1620052 37.0914498,48.393099 33.9915737,48.393099 C27.3596035,48.393099 20.6458488,52.0110156 14.5759603,58.8554688 C10.0490706,63.9602344 7.3819083,69.1174479 7.0929368,69.6889323 L0,83.6875781 L11.0498141,78.101875 C11.2431227,78.004401 14.9372986,76.1425 19.2669145,74.0772396 C19.2079306,74.5878646 19.1841388,74.9223438 19.1786865,75.0079427 L18.5828996,84.3738542 L25.8225527,78.389349 C28.2101611,76.4161198 30.8054523,74.9243229 31.6902107,74.6739583 C31.7125155,74.6858333 31.7377943,74.6996875 31.7650558,74.7155208 C32.6993804,75.2563281 32.9179678,75.5482552 33.9677819,76.9509896 C34.2423792,77.3176302 34.5556382,77.7792708 34.8872367,78.268125 C37.06171,81.4738802 41.0988848,87.426224 49.5930607,87.426224 C49.9226766,87.426224 50.2612144,87.4168229 50.5997522,87.397526 C57.160347,87.0308854 63.2798017,84.6172917 65.9707559,83.4114844 L120.460967,83.4114844 C128.865923,83.4114844 136.502602,81.1606771 143.15886,76.721901 C146.243866,74.7026563 148.90855,72.3484375 151.103841,69.703776 C151.56233,70.3663021 152.049071,71.0125 152.560595,71.6384115 C158.945229,79.4501823 168.356877,83.4114844 180.53482,83.4114844 L224.432218,83.4114844 L232.383643,52.6131771 L184.709294,52.6131771 C182.048079,52.6131771 180.269641,52.062474 179.272862,50.9298958 C178.722181,50.3034896 178.246344,49.3218229 178.89715,46.8013542 C179.620322,43.9983594 181.201487,41.7327083 183.729864,39.8752604 C186.368773,37.9366667 189.244114,36.9945833 192.51995,36.9945833 L246.942255,36.9945833 L234.957621,83.4114844 L258.637918,83.4114844 C263.955886,83.4114844 268.784139,79.6570052 270.119455,74.4844531 L279.799257,36.9945833 L295.312515,36.9945833 L292.839653,45.7796094 L399.750186,22.0538542 L309.516233,0.887161458 L305.728872,0 L305.728872,0 Z M74.4515489,50.2871615 C75.0592317,50.0476823 75.6237918,49.8017708 76.1477076,49.5736719 C76.1942999,49.5533854 76.2408922,49.533099 76.2874845,49.5128125 C76.8346964,50.1619792 77.4275093,50.7834375 78.0589839,51.3702604 C78.5249071,51.8041927 79.0091698,52.2183333 79.5112763,52.6131771 L77.380917,52.6131771 C76.6389095,51.9847917 75.6351921,51.1570052 74.4515489,50.2871615 L74.4515489,50.2871615 Z" id="Fill-2" fill="#1A1918" sketch:type="MSShapeGroup"></path>
            <path d="M49.5930607,85.2605208 C42.2572491,85.2605208 38.7786865,80.1320052 36.7003717,77.0677604 C36.3534077,76.555651 36.0252788,76.0722396 35.7179678,75.6610677 C34.5997522,74.1672917 34.1814126,73.6086719 32.8604709,72.843724 C32.3900867,72.5710937 32.1045849,72.5047917 32.0416357,72.5033073 L31.9866171,72.5013281 L31.8577447,72.4904427 L31.8052045,72.4830208 C31.7967782,72.4820312 31.77943,72.4805469 31.7531599,72.4805469 C30.401487,72.4805469 26.8996283,74.6833594 24.4302354,76.724375 L21.0820322,79.49125 L21.3581165,75.1618229 C21.3645601,75.0564323 21.516233,72.7977083 22.2344486,70.2896094 C16.492689,72.9327865 10.3355638,76.0336458 10.0644362,76.1702083 L4.95365551,78.7540104 L9.04188352,70.6854427 C9.45724907,69.8650781 19.3848823,50.5865104 33.9915737,50.5865104 C36.7732342,50.5865104 39.5355638,51.2915885 42.2012392,52.6819531 C42.4550186,52.7804167 42.7053284,52.8813542 42.9546468,52.9822917 C43.6064436,53.2470052 44.4173482,53.5760417 44.7474597,53.5760417 C44.8346964,53.5760417 45.0448575,53.5399219 45.4750929,53.297474 C45.7868649,53.1218229 46.1149938,52.9318229 46.4599752,52.7319271 L46.6225527,52.6374219 C50.0039653,50.6745833 55.0304833,47.7567969 61.0869888,47.4767448 C59.594052,46.4846875 58.4317224,45.1324219 57.6193309,43.4402344 C55.022057,44.2680208 52.6225527,44.6707812 50.2929368,44.6707812 C49.8944238,44.6707812 49.4959108,44.6589062 49.1083024,44.6361458 C43.7288724,44.3219531 39.1990087,41.9890104 36.9541512,40.0860417 C33.8403965,37.4478125 32.6339529,35.1401042 30.9511772,30.6384896 L30.891202,30.4781771 C28.670632,29.9057031 26.5789343,29.0338802 24.9804213,28.0126302 L8.81784387,17.6888021 L27.9871128,18.5556771 C28.5050805,18.5789323 29.6356877,18.6333594 29.6401487,18.6338542 C31.0438662,18.7016406 32.0609665,18.7511198 32.9030979,18.7511198 C34.4510533,18.7511198 35.5197026,18.5695312 38.1016109,17.8669271 C39.0309789,17.6135937 40.4089219,16.948099 41.8671623,16.2440104 C45.5776952,14.4508854 50.1947955,12.2198698 55.8597274,12.2198698 C57.9390335,12.2198698 60.0094176,12.5340625 62.0133829,13.1535417 C67.7506815,14.9288542 70.9348203,17.7382812 74.0143742,20.4551823 C74.3063197,20.7129688 74.6017348,20.973724 74.9021066,21.234974 C76.3895911,17.8466406 80.6716233,11.1817969 91.3154895,11.1817969 C91.7739777,11.1817969 92.2488228,11.1946615 92.7281289,11.219401 C97.3199504,9.28278646 102.325651,8.30111979 107.608922,8.30111979 L162.937794,8.30111979 L158.564064,25.2398177 C160.926394,22.5021354 163.673358,20.0009635 166.750434,17.7892448 C175.508798,11.4935156 185.591078,8.30111979 196.716729,8.30111979 L305.663941,8.30111979 L307.264932,2.61299479 L389.953903,22.0093229 L295.92912,42.8746875 L298.1943,34.8283854 L278.107063,34.8283854 L268.004957,73.9540365 C266.914498,78.1790625 262.974969,81.2452865 258.638414,81.2452865 L237.774969,81.2452865 L249.760099,34.8283854 L192.51995,34.8283854 C188.761338,34.8283854 185.463197,35.9095052 182.435688,38.1335937 C179.485502,40.3002865 177.636679,42.9622656 176.782652,46.2709375 C176.072367,49.0204948 176.334572,50.9051562 177.632218,52.3821094 C179.068154,54.0134375 181.3829,54.8065885 184.709294,54.8065885 L229.566791,54.8065885 L222.740025,81.2452865 L180.53482,81.2452865 C169.044857,81.2452865 160.20223,77.5541406 154.252292,70.273776 C153.11425,68.8814323 152.116481,67.390625 151.28228,65.8330208 C148.945725,69.3396094 145.808674,72.3949479 141.94746,74.921849 C135.65601,79.1176823 128.425774,81.2452865 120.460967,81.2452865 L65.4964064,81.2452865 C63.1008674,82.353125 57.0116481,84.8696354 50.4778191,85.2352865 C50.173482,85.2521094 49.8760843,85.2605208 49.5930607,85.2605208 L49.5930607,85.2605208 Z M88.577943,54.8065885 C85.0468401,53.7729687 82.0193309,52.0921615 79.5464684,49.7879167 C78.5873606,48.8977865 77.7333333,47.9225521 77.0047088,46.8864583 C76.5288724,47.0433073 75.9152416,47.3104948 75.2708798,47.5910417 C73.5702602,48.3317448 71.4949195,49.236224 68.9695167,49.4074219 C72.2136307,51.0961458 75.0483271,53.4988542 76.5754647,54.8065885 L88.577943,54.8065885 L88.577943,54.8065885 Z" id="Fill-3" fill="#FFFFFF" sketch:type="MSShapeGroup"></path>
            <path d="M307.542007,3.08057292 L308.372243,3.27502604 L308.926394,3.40466146 L388.190335,21.9984375 L297.939529,42.0266146 L296.485254,42.3492188 L298.713259,34.4360156 L277.802726,34.4360156 L267.624287,73.8565625 C266.577447,77.9108854 262.798513,80.8534115 258.637918,80.8534115 L238.282528,80.8534115 L250.267162,34.4360156 L192.51995,34.4360156 C188.674597,34.4360156 185.300124,35.5423698 182.202726,37.8174219 C179.176704,40.040026 177.279306,42.7732552 176.401983,46.1729688 C175.65601,49.0615625 175.944486,51.0560677 177.336803,52.6408854 C178.852045,54.3622656 181.263445,55.1989583 184.709294,55.1989583 L229.059232,55.1989583 L222.435192,80.8534115 L180.53482,80.8534115 C169.168773,80.8534115 160.428748,77.2102604 154.557125,70.0258854 C153.287237,68.4727344 152.20223,66.806276 151.31995,65.053724 C148.977943,68.753776 145.758116,71.9585417 141.731846,74.5938021 C135.503346,78.7470833 128.346964,80.8534115 120.460967,80.8534115 L65.4096654,80.8534115 C62.9482032,81.9978646 56.93829,84.4807292 50.4560099,84.8434115 C50.1625774,84.8597396 49.8726146,84.868151 49.5930607,84.868151 C42.4659232,84.868151 39.0607187,79.8475 37.0260223,76.8475781 C36.6765799,76.3315104 36.3459727,75.8446354 36.0327138,75.4260417 C34.9120198,73.9288021 34.448575,73.3093229 33.0577447,72.5042969 C32.5655514,72.2192969 32.2071871,72.114401 32.050062,72.1109375 L32.0208178,72.1104427 L31.9920694,72.1079687 L31.9182156,72.1015365 L31.8914498,72.0990625 L31.8641884,72.0951042 C31.8433705,72.0921354 31.8066914,72.0881771 31.7531599,72.0881771 C30.1462206,72.0881771 26.3568773,74.6225 24.17943,76.4220573 L21.5320942,78.610026 L21.7501859,75.1865625 C21.7591078,75.0440625 21.9425031,72.3385417 22.8703841,69.5672135 C16.8019827,72.3326042 9.96084263,75.7827865 9.88550186,75.8213802 L5.84535316,77.8633854 L9.39231722,70.8625781 C9.80371747,70.050625 19.6262701,50.9788802 33.9915737,50.9788802 C36.716233,50.9788802 39.423544,51.6720833 42.038166,53.0396875 C42.2969021,53.1396354 42.5526642,53.2430469 42.8064436,53.3459635 C43.5613383,53.6522396 44.3415118,53.9684115 44.7474597,53.9684115 C44.973482,53.9684115 45.2748451,53.8610417 45.6684015,53.639375 C45.9885998,53.458776 46.3261462,53.2633333 46.6820322,53.0565104 L46.8198265,52.9773437 C50.3385378,50.934349 55.6565056,47.8473438 62.0262701,47.8473438 C62.2066914,47.8473438 62.3871128,47.8522917 62.5675341,47.8616927 C60.0475836,46.6697396 58.6285006,44.7608333 57.8299876,42.9588021 C55.9226766,43.5896615 53.2887237,44.2784115 50.2929368,44.2784115 C49.9013631,44.2784115 49.510285,44.2670312 49.1315985,44.2442708 C43.8483271,43.9360156 39.4066914,41.6505729 37.2089219,39.7871875 C34.1620818,37.2053646 32.9774473,34.9352604 31.3194548,30.5014323 L31.1871128,30.148151 C28.9273854,29.5860677 26.8138786,28.7182031 25.1925651,27.6826042 L10.264684,18.1469792 L13.5841388,18.296901 L27.9692689,18.9475521 C28.4857497,18.9708073 29.6123916,19.0252344 29.6168525,19.0252344 C31.0319703,19.0940104 32.0540273,19.1434896 32.9030979,19.1434896 C34.492689,19.1434896 35.5831475,18.9589323 38.2047088,18.2454427 C39.1697646,17.9827083 40.5615861,17.3102865 42.0386617,16.5967969 C45.7125155,14.8214844 50.2850062,12.6122396 55.8597274,12.6122396 C57.8993804,12.6122396 59.9306072,12.9204948 61.8969021,13.5285937 C67.5534077,15.2786719 70.705824,18.0598958 73.7541512,20.7495833 C74.1789343,21.1241406 74.6121437,21.5066146 75.0552664,21.8861198 C76.4530359,18.3825 80.5581165,11.5746615 91.3154895,11.5746615 C91.7967782,11.5746615 92.2944238,11.5885156 92.7980173,11.6157292 C97.3640644,9.67664062 102.345477,8.69348958 107.608922,8.69348958 L162.430235,8.69348958 L157.742751,26.846901 C160.324659,23.5961198 163.417596,20.6689323 166.979926,18.1073958 C175.670384,11.860651 185.675341,8.69348958 196.716729,8.69348958 L305.961338,8.69348958 L307.542007,3.08057292 L307.542007,3.08057292 Z M68.1224287,49.04375 C67.8627014,49.04375 67.6019827,49.0353385 67.3477076,49.0185156 C67.2991326,49.0155469 67.2505576,49.0120833 67.2024783,49.0086198 C70.9853779,50.596901 74.3876084,53.449375 76.4297398,55.1989583 L92.1050805,55.1989583 C87.1325898,54.3889844 83.0136307,52.4820573 79.8146221,49.5014323 C78.8024783,48.5613281 77.9137546,47.5306771 77.1662949,46.4297656 C77.1638166,46.4302604 77.1613383,46.4307552 77.15886,46.43125 C76.6096654,46.5801823 75.8845105,46.8958594 75.1137546,47.2313281 C73.2599752,48.0388281 70.9531599,49.04375 68.1224287,49.04375 L68.1224287,49.04375 Z M306.988848,2.14492187 L305.366047,7.90875 L196.716729,7.90875 C185.506815,7.90875 175.347212,11.1258854 166.520446,17.470599 C163.877076,19.3710937 161.475093,21.4833594 159.348203,23.7747396 L163.444857,7.90875 L107.608922,7.90875 C102.304833,7.90875 97.2758364,8.88893229 92.6582404,10.8225781 C92.2032218,10.8008073 91.7526642,10.7894271 91.3154895,10.7894271 C86.4342007,10.7894271 82.3474597,12.1441667 79.1692689,14.8160417 C76.9571252,16.6754687 75.5876084,18.8446354 74.7623296,20.5907552 C74.5982652,20.4467708 74.4351921,20.3027865 74.2745973,20.161276 C71.1638166,17.4166667 67.9474597,14.5790365 62.129368,12.7789844 C60.0877323,12.1476302 57.9781908,11.8275 55.8597274,11.8275 C50.1045849,11.8275 45.4423792,14.0802865 41.6961586,15.8907292 C40.2537794,16.5873958 38.892689,17.244974 37.9980173,17.4884115 C35.4567534,18.1796354 34.4089219,18.35875 32.9030979,18.35875 C32.0733581,18.35875 31.060223,18.3097656 29.6579926,18.2414844 L29.6525403,18.2414844 L29.6446097,18.2409896 L29.5608426,18.2370312 C29.2783147,18.2236719 28.4327138,18.183099 28.0049566,18.1638021 L13.6193309,17.513151 L10.2998761,17.3627344 L7.37100372,17.230625 L24.7687732,28.3436458 C26.352912,29.3554948 28.4084263,30.2228646 30.5942999,30.8057292 C32.2964064,35.3553385 33.5256506,37.6957031 36.6998761,40.3853906 C38.9903346,42.3269531 43.6089219,44.7083854 49.0855019,45.0280208 C49.4785626,45.051276 49.8855019,45.063151 50.2929368,45.063151 C52.5670384,45.063151 54.9040892,44.6871094 57.4166047,43.9147396 C58.0793061,45.1977344 58.9442379,46.2823177 60.0034696,47.1610677 C54.3311029,47.7088021 49.6416357,50.4311458 46.4242875,52.2984896 L46.2879802,52.3776563 C45.9345725,52.5829948 45.5995043,52.7769531 45.28228,52.9555729 C44.8931846,53.1747656 44.751425,53.1836719 44.7454771,53.1836719 C44.4936803,53.1831771 43.6228005,52.8298958 43.1023544,52.6191146 C42.8584882,52.5201563 42.6126394,52.4207031 42.3638166,52.323724 C39.6475836,50.910599 36.8307311,50.1941406 33.9915737,50.1941406 C19.1469641,50.1941406 9.11078067,69.6790365 8.69095415,70.5088021 L4.06195787,79.6446354 L10.2403965,76.5215104 C10.3023544,76.4903385 16.0237918,73.603724 21.639653,70.9971615 C21.0944238,73.2044271 20.9714994,75.0415885 20.9655514,75.1365885 L20.6324659,80.3729688 L24.6810409,77.0266927 C27.0582404,75.061875 30.5472119,72.8729167 31.7531599,72.8729167 L31.7506815,72.8719271 L31.7744734,72.8753906 L31.7992565,72.8788542 L31.8245353,72.8813281 L31.8513011,72.8833073 L31.9241636,72.8897396 L31.954399,72.8922135 L31.9791822,72.8941927 L32.0039653,72.8951823 L32.0118959,72.8951823 C32.0525403,72.9035938 32.2711276,72.9560417 32.663197,73.183151 C33.9152416,73.907526 34.2899628,74.40875 35.4027261,75.8960938 C35.7045849,76.2988542 36.0292441,76.7778125 36.3732342,77.2844792 C38.4971499,80.4160156 42.0490706,85.6528906 49.5930607,85.6528906 C49.8864932,85.6528906 50.1918216,85.6439844 50.4996283,85.6271615 C57.0309789,85.2615104 63.113259,82.7727083 65.5826518,81.638151 L120.460967,81.638151 C128.505081,81.638151 135.808674,79.4877865 142.168525,75.2464323 C145.872615,72.8219531 148.922924,69.910599 151.246592,66.5821354 C152.02627,67.9586458 152.931846,69.2792448 153.947955,70.5221615 C159.976208,77.8980208 168.920942,81.638151 180.53482,81.638151 L223.044362,81.638151 L230.073358,54.4142188 L184.709294,54.4142188 C181.50285,54.4142188 179.284263,53.6646094 177.927633,52.1228385 C176.708798,50.7359375 176.479802,49.0150521 177.163321,46.3689063 C177.993556,43.151276 179.7943,40.5605469 182.668649,38.4497656 C185.62627,36.2771354 188.848575,35.2207552 192.51995,35.2207552 L249.253036,35.2207552 L237.267906,81.638151 L258.637918,81.638151 C263.151425,81.638151 267.251053,78.4477344 268.385626,74.0520052 L278.411896,35.2207552 L297.675836,35.2207552 L295.372986,43.4001563 L296.656258,43.115651 L298.110533,42.7925521 L391.717472,22.0197135 L384.576456,20.344349 L309.10632,2.64070312 L308.552169,2.51106771 L306.988848,2.14492187 L306.988848,2.14492187 Z M70.2344486,49.6567969 C72.2701363,49.326276 73.9821561,48.580625 75.428005,47.9507552 C75.9429988,47.7266146 76.4376704,47.5113802 76.8574969,47.3555208 C77.5623296,48.3233333 78.3752169,49.2367188 79.2793061,50.0758854 C81.2555143,51.9175 83.5786865,53.3677344 86.2225527,54.4142188 L76.7206939,54.4142188 C75.336803,53.2306771 72.982404,51.2529948 70.2344486,49.6567969 L70.2344486,49.6567969 Z" id="Fill-4" fill="#BE2531" sketch:type="MSShapeGroup"></path>
            <path d="M169.757125,21.883151 C161.855762,27.5628646 156.725651,34.9797917 154.36233,44.1329427 C151.998017,53.2895573 153.287732,60.897474 158.239405,66.9522396 C163.187608,73.0075 170.62057,76.0351302 180.53482,76.0351302 L218.752416,76.0351302 L222.926394,59.8683073 L184.709294,59.8683073 C179.85824,59.8683073 176.210657,58.4744792 173.76456,55.6947396 C171.318463,52.9115365 170.662206,49.3213281 171.799752,44.9147135 C172.951177,40.4546615 175.481041,36.7907292 179.385874,33.9224219 C183.290706,31.0536198 187.668897,29.6177344 192.51995,29.6177344 L230.025774,29.6177344 L234.223048,13.3628385 L196.716729,13.3628385 C186.644857,13.3628385 177.658488,16.2029427 169.757125,21.883151" id="Fill-5" fill="#1A1918" sketch:type="MSShapeGroup"></path>
            <path d="M366.870384,21.7955729 L310.88575,8.6628125 L309.56233,13.3628385 L240.889715,13.3628385 C238.810905,13.3628385 236.91202,14.8511719 236.384634,16.8941667 L233.09938,29.6177344 L256.4,29.6177344 L244.41487,76.0351302 L258.637918,76.0351302 C260.661214,76.0351302 262.509046,74.5863802 263.022553,72.5978125 L274.11995,29.6177344 L304.985378,29.6177344 L303.209913,35.9228646 L366.870384,21.7955729" id="Fill-6" fill="#1A1918" sketch:type="MSShapeGroup"></path>
            <path d="M103.411648,29.6177344 L152.10062,29.6177344 L156.297893,13.3628385 L107.608922,13.3628385 C102.619579,13.3628385 98.0148699,14.3420313 93.7913259,16.2939844 C93.2738538,16.3498958 92.7737299,16.3113021 92.3539033,16.2415365 C91.9846344,16.1252604 91.6188352,16.0297656 91.2570012,15.96 C91.2560099,15.9595052 91.2505576,15.957526 91.2505576,15.957526 L91.2495663,15.9585156 C85.288228,14.8066406 80.4892193,19.6358073 80.180917,20.7654167 C82.2998761,19.9252604 84.226518,19.1820833 85.6525403,19.4839063 C85.6525403,19.4839063 87.108798,20.2399479 85.6525403,21.8015104 C85.6460967,21.8084375 85.6406444,21.8158594 85.6342007,21.8227865 C83.68228,23.7386198 82.1506815,25.8949219 81.0399009,28.2921875 C81.0384139,28.2951563 81.0364312,28.2976302 81.0349442,28.300599 C80.0109046,30.2500781 77.4686493,29.5989323 77.111772,29.3515365 C76.7548947,29.1041406 75.5221809,28.1590885 74.8505576,27.6875521 C69.9038414,24.2111458 67.3888476,20.1197135 60.4902107,17.9851823 C51.561834,15.2227604 44.4465923,21.3883594 39.4542751,22.7480469 C34.5075589,24.0938802 33.7333333,23.8826042 27.7536555,23.6124479 C30.6805452,25.4817708 36.8009913,27.0740104 42.2874845,25.2497135 C55.9112763,20.719401 59.0954151,26.1794271 59.3942999,26.8869792 C59.9717472,28.2634896 59.3030979,30.6746094 58.0525403,32.041224 C56.2359356,34.0297917 52.1546468,35.2484635 48.929368,34.6571875 C43.6203222,33.686901 39.1712515,30.8220573 35.7714994,28.7681771 C37.2520446,32.7275 38.1045849,34.2494792 40.2845105,36.0965365 C42.0639405,37.6046615 45.5524164,39.2092708 49.4091698,39.434401 C55.8929368,39.8134115 60.9804213,35.8946615 66.1675341,34.891224 C68.616109,34.4186979 72.1343247,34.4013802 72.7920694,35.921875 C73.1925651,36.8466406 72.6057001,38.5759375 72.0208178,39.0741927 C70.8109046,40.104349 68.9050805,40.7916146 67.1192069,40.7426302 C65.2768278,40.6921615 62.9952912,39.7970833 61.6634449,39.2458854 C62.1645601,42.1493229 63.8978934,43.9632292 67.6619579,44.210625 C70.8104089,44.4184375 73.3769517,42.4264063 76.0604709,41.740625 C76.5774473,41.6278125 77.063197,41.5278646 77.5216853,41.4373177 C78.2636927,41.3467708 79.5494424,41.3952604 80.4173482,42.5496094 C80.5482032,42.7989844 80.6894672,43.0429167 80.8391574,43.2838802 C80.8446097,43.2967448 80.8510533,43.3086198 80.8565056,43.3219792 C80.8589839,43.3229688 80.8614622,43.3234635 80.8639405,43.3239583 C81.4527881,44.2635677 82.1789343,45.1433073 83.0562577,45.9577344 C86.5407683,49.2045573 91.5003717,50.8279688 97.9350682,50.8279688 L126.969517,50.8279688 C128.868897,50.8279688 130.455019,51.1184115 131.728872,51.6948438 C133.418092,52.5082813 134.060967,53.696276 133.657001,55.2598177 C133.267906,56.7664583 132.011896,57.9549479 129.88798,58.8247917 C128.231475,59.5179948 126.479802,59.8683073 124.63544,59.8683073 L75.6128872,59.8683073 C75.0022305,59.8683073 74.4267658,59.6609896 73.9811648,59.2790104 C71.4850062,57.1385417 66.2294919,52.5166927 62.0262701,52.5166927 C56.2736059,52.5166927 51.2847584,55.8491146 48.0024783,57.6966667 C44.7206939,59.5447135 42.6071871,58.2533073 40.1863693,57.3359635 C26.1427509,52.0154688 18.4401487,64.3748698 15.0027261,68.9655469 C18.2731103,66.8527865 27.2317224,60.4417708 31.9757125,61.1285417 C35.2649318,61.6025521 37.5276332,63.1111719 40.3261462,64.2397917 C43.1365551,65.3748438 47.2574969,65.4797396 50.3509294,64.3159896 C52.8862454,63.3640104 57.1638166,61.5273438 60.2879802,62.949375 C62.269145,63.8513802 62.5372986,66.8453646 61.0230483,69.1733594 C59.0101611,72.2692708 53.7581165,73.7808594 49.6579926,72.4370052 C47.3164808,71.668099 45.9697646,69.9670052 43.9890954,68.6409635 C31.0156134,60.5333073 27.7769517,70.4494271 27.7769517,70.4494271 C27.7769517,70.4494271 31.7040892,66.7929167 35.4418835,68.3257813 C37.8052045,69.2955729 38.5997522,70.8551563 39.8394052,72.5127083 C42.2076828,75.6749219 44.2156134,80.367526 50.1898389,80.0325521 C56.1313507,79.6995573 61.7179678,77.2785417 63.6287485,76.3725781 C64.1001239,76.1489323 64.6096654,76.0351302 65.1157373,76.0351302 L120.460967,76.0351302 C127.42057,76.0351302 133.640644,74.2098438 139.119703,70.5563021 C144.960595,66.7330469 148.678563,61.7213021 150.279058,55.5215625 C151.895911,49.2614583 150.813383,44.1646094 147.032466,40.2211198 C143.347708,36.5146354 138.052045,34.6616406 131.14399,34.6616406 L102.109542,34.6616406 C99.9464684,34.6616406 99.0855019,33.8195052 99.5187113,32.1396875 C99.952912,30.459375 101.248575,29.6177344 103.411648,29.6177344" id="Fill-7" fill="#1A1918" sketch:type="MSShapeGroup"></path>
        </g>
    </g>
</svg>